<svg width="243" height="214" viewBox="0 0 243 214" fill="none" xmlns="http://www.w3.org/2000/svg">
<path opacity="0.17" d="M186.478 54.3988C173.502 20.4584 115.231 27.7772 101.525 45.0256C87.8202 60.562 87.8202 81.2344 65.3184 88.4676C32.0274 101.094 -27.4104 120.225 15.4062 166.62C65.5128 220.934 135.837 212.331 158.387 175.223C180.889 138.158 202.468 133.279 227.934 115.004C253.4 96.728 243.583 82.7324 216.173 80.25C193.622 78.2384 192.991 71.4332 186.478 54.3988Z" fill="url(#paint0_linear_75_22)"/>
<path opacity="0.17" d="M124.319 133.45C97.1029 117.058 69.5467 133.45 23.2795 131.439C15.0175 131.096 8.35929 129.042 3.06189 125.875C12.2959 107.171 44.1289 96.514 65.3185 88.4676C87.8203 81.2344 87.8203 60.5192 101.525 45.0256C112.169 31.6292 149.591 24.2248 171.898 37.4072C171.801 37.5784 171.753 37.7496 171.655 37.9636C157.075 67.9236 168.399 66.6824 180.938 93.09C193.525 119.54 151.486 149.843 124.319 133.45Z" fill="url(#paint1_linear_75_22)"/>
<path opacity="0.17" d="M56.4246 33.812C56.4246 33.812 49.3776 52.216 64.1034 53.5C78.8292 54.8268 85.6332 35.2672 73.872 26.8784C62.0622 18.5324 56.4246 33.812 56.4246 33.812Z" fill="url(#paint2_linear_75_22)"/>
<path opacity="0.17" d="M183.708 198.977C191.192 200.989 190.609 210.918 182.979 212.288C180.598 212.716 177.876 212.117 175.203 209.763C169.322 204.541 174.377 200.09 179.966 198.892C181.132 198.635 182.396 198.635 183.611 198.934C183.611 198.977 183.659 198.977 183.708 198.977Z" fill="url(#paint3_linear_75_22)"/>
<path opacity="0.17" d="M41.7961 57.1809C42.7195 54.9125 45.5383 53.7569 48.1141 54.5701C50.6899 55.3833 52.0507 57.8657 51.1273 60.1341C50.2039 62.4025 47.3851 63.5581 44.8093 62.7449C42.2335 61.9317 40.8727 59.4493 41.7961 57.1809Z" fill="url(#paint4_linear_75_22)"/>
<path opacity="0.17" d="M184.048 176.764C184.048 174.367 186.235 172.441 189.005 172.441C191.727 172.441 193.963 174.41 193.963 176.807C193.963 179.204 191.776 181.13 189.005 181.13C186.284 181.13 184.048 179.161 184.048 176.764Z" fill="url(#paint5_linear_75_22)"/>
<path d="M49.6692 97.1561C48.114 101.308 48.2112 105.973 50.301 109.953C52.3908 113.934 56.4732 117.101 61.3332 118.085C64.152 118.684 67.2138 118.513 69.8382 117.4C72.4626 116.33 74.601 114.276 75.3786 111.836C76.1562 109.397 75.5244 106.572 73.5318 104.689C72.0252 103.319 69.4008 102.549 68.0886 101.051C65.853 98.3973 67.311 94.3741 65.0754 91.7205C63.0342 89.2809 58.8546 88.8529 55.7928 90.2225C52.731 91.5493 50.7384 94.2885 49.6692 97.1561Z" fill="#393762"/>
<g opacity="0.5">
<path d="M111.051 145.049C109.496 145.82 109.496 147.104 111.051 147.917L162.47 174.196C164.025 174.966 166.504 174.966 168.059 174.196L180.112 169.231C181.667 168.461 181.667 167.177 180.112 166.364L128.693 140.042C127.138 139.271 124.659 139.271 123.104 140.042L111.051 145.049Z" fill="white"/>
</g>
<path d="M96.8597 35.0532V36.166C96.8597 36.8508 97.6859 37.236 98.3177 36.8936L104.393 33.812C104.684 33.6408 104.879 33.384 104.879 33.0416V31.9288C104.879 31.244 104.053 30.8588 103.421 31.2012L97.3457 34.2828C97.0541 34.454 96.8597 34.7536 96.8597 35.0532Z" fill="#1DBFFF"/>
<path d="M77.7114 50.4184V51.5312C77.7114 52.216 78.5376 52.6012 79.1694 52.2588L104.393 39.4188C104.684 39.2476 104.879 38.9908 104.879 38.6484V37.5356C104.879 36.8508 104.053 36.4656 103.421 36.808L78.1974 49.648C77.9058 49.8192 77.7114 50.076 77.7114 50.4184Z" fill="#1DBFFF"/>
<g opacity="0.8">
<path d="M88.1604 56.3677V57.4805C88.1604 58.1653 88.9866 58.5505 89.6184 58.2081L104.441 50.6753C104.733 50.5041 104.927 50.2473 104.927 49.9049V48.7921C104.927 48.1073 104.101 47.7221 103.469 48.0645L88.6464 55.6401C88.3548 55.7685 88.1604 56.0681 88.1604 56.3677Z" fill="white"/>
</g>
<g opacity="0.53">
<path d="M81.6479 54.0565V55.1693C81.6479 55.8541 82.4741 56.2393 83.1059 55.8969L104.441 45.0685C104.733 44.8973 104.927 44.6405 104.927 44.2981V43.1853C104.927 42.5005 104.101 42.1153 103.469 42.4577L82.1339 53.2861C81.8423 53.4573 81.6479 53.7569 81.6479 54.0565Z" fill="#1AE5FF"/>
</g>
<path d="M213.597 52.1732C213.889 52.3016 214.083 52.644 214.083 52.9436L214.034 60.6476C214.034 60.9472 213.791 61.0328 213.548 60.9044L202.468 55.2976C202.176 55.1692 201.982 54.8268 201.982 54.5272L202.03 46.8232C202.03 46.5236 202.273 46.438 202.516 46.5664L213.597 52.1732Z" fill="#1DBFFF"/>
<g opacity="0.67">
<path d="M217.631 65.8692C217.922 65.9976 218.117 66.34 218.117 66.6396L218.068 74.3436C218.068 74.6432 217.825 74.7288 217.582 74.6004L206.55 68.9508C206.258 68.8224 206.064 68.48 206.064 68.1804L206.113 60.4764C206.113 60.1768 206.356 60.0912 206.599 60.2196L217.631 65.8692Z" fill="white"/>
</g>
<g opacity="0.37">
<path d="M105.073 73.1452C105.268 73.2308 105.413 73.4448 105.413 73.6588V78.6236C105.413 78.7948 105.268 78.8804 105.073 78.7948L97.9289 75.1568C97.7345 75.0712 97.5887 74.8572 97.5887 74.6432V69.6784C97.5887 69.5072 97.7345 69.4216 97.9289 69.5072L105.073 73.1452Z" fill="#8ED2FF"/>
</g>
<path d="M107.698 82.0048C107.892 82.0904 108.038 82.3044 108.038 82.5184V87.4832C108.038 87.6544 107.892 87.74 107.698 87.6544L100.553 84.0164C100.359 83.9308 100.213 83.7168 100.213 83.5028V78.538C100.213 78.3668 100.359 78.2812 100.553 78.3668L107.698 82.0048Z" fill="white"/>
<path d="M178.362 29.4464C184.923 32.7848 190.22 40.8312 190.172 47.4652L189.832 154.465C189.832 161.099 184.486 163.753 177.925 160.457L127.332 134.692C120.771 131.353 115.474 123.307 115.522 116.673L115.862 9.67282C115.862 3.03882 121.208 0.385223 127.769 3.68082L178.362 29.4464Z" fill="#F9FBFC"/>
<path d="M159.699 30.2595C160.477 30.6447 161.157 31.6291 161.109 32.4423C161.109 33.2555 160.477 33.5551 159.651 33.1699L146.626 26.5359C145.848 26.1507 145.168 25.1663 145.217 24.3531C145.217 23.5399 145.848 23.2403 146.675 23.6255L159.699 30.2595Z" fill="#0AA5E2"/>
<path d="M152.847 132.166C154.985 133.236 156.735 135.89 156.686 138.073C156.686 140.256 154.937 141.112 152.798 140.042C150.66 138.972 148.91 136.318 148.959 134.135C148.959 131.952 150.708 131.096 152.847 132.166Z" fill="url(#paint6_linear_75_22)"/>
<path d="M184.972 52.5156C185.652 52.858 186.138 53.6712 186.138 54.3132L185.846 143.722C185.846 144.407 185.312 144.664 184.631 144.322L121.014 111.922C120.334 111.58 119.848 110.766 119.848 110.124L120.139 20.7152C120.139 20.0304 120.674 19.7736 121.354 20.116L184.972 52.5156Z" fill="#F9FBFC"/>
<path d="M192.991 83.5457C192.553 83.5457 192.262 83.2461 192.262 82.9037V63.0445C192.262 62.6593 192.602 62.4025 192.991 62.4025C193.428 62.4025 193.72 62.7021 193.72 63.0445V82.9037C193.72 83.2461 193.379 83.5457 192.991 83.5457Z" fill="#F9FBFC"/>
<path d="M192.991 108.284C192.553 108.284 192.262 107.984 192.262 107.642V87.74C192.262 87.3548 192.602 87.098 192.991 87.098C193.428 87.098 193.72 87.3976 193.72 87.74V107.599C193.72 107.984 193.379 108.284 192.991 108.284Z" fill="#F9FBFC"/>
<path d="M192.991 138.672C192.553 138.672 192.262 138.372 192.262 138.03V127.715C192.262 127.33 192.602 127.073 192.991 127.073C193.428 127.073 193.72 127.373 193.72 127.715V138.03C193.72 138.372 193.379 138.672 192.991 138.672Z" fill="#F9FBFC"/>
<path d="M152.41 58.7645C155.666 60.4337 158.29 64.4141 158.339 67.7525C158.339 67.7953 158.339 67.7953 158.339 67.8381C158.193 67.8809 155.617 68.7797 152.312 67.1961C152.264 67.1961 152.215 67.1533 152.215 67.1533C149.639 65.8265 147.501 63.2157 146.772 62.2313C146.578 61.9745 146.48 61.8461 146.48 61.8033C146.432 58.4649 149.105 57.0953 152.41 58.7645Z" fill="white"/>
<path d="M179.237 87.6116C180.014 87.9968 180.598 88.9384 180.598 89.666V94.7164C180.598 95.4868 179.966 95.7864 179.237 95.4012L126.846 68.7796C126.068 68.3944 125.485 67.4528 125.485 66.7252V61.6748C125.485 60.9044 126.117 60.6048 126.846 60.99L179.237 87.6116Z" fill="#CFE3FF"/>
<path d="M161.935 82.0048C162.13 82.0904 162.275 82.3472 162.275 82.5184V83.7596C162.275 83.9308 162.13 84.0164 161.935 83.9308L133.213 69.3788C133.018 69.2932 132.872 69.0364 132.872 68.8652V67.624C132.872 67.4528 133.018 67.3672 133.213 67.4528L161.935 82.0048Z" fill="#B1CAE8"/>
<path d="M161.352 57.6088C161.644 58.5076 161.887 59.4064 161.984 60.3052C162.032 60.8188 162.081 61.3752 162.081 61.8888C162.081 62.06 162.081 62.1884 162.081 62.3596C162.081 62.4024 162.081 62.4024 162.081 62.4452C162.081 62.5736 162.081 62.7448 162.032 62.8732C162.032 62.916 162.032 62.916 162.032 62.9588C162.032 63.0872 161.984 63.2156 161.984 63.344C161.935 63.5152 161.935 63.6436 161.887 63.772C161.838 63.9432 161.838 64.0716 161.789 64.2V64.2428C161.741 64.3712 161.692 64.4996 161.692 64.5852V64.628C161.644 64.7564 161.595 64.842 161.546 64.9704C161.498 65.0988 161.449 65.2272 161.401 65.3128C161.303 65.4412 161.255 65.5696 161.206 65.6552C161.206 65.6552 161.206 65.698 161.158 65.698C161.109 65.7836 161.012 65.8692 160.963 65.9548C160.963 65.9548 160.963 65.9976 160.915 65.9976C160.866 66.0832 160.769 66.1688 160.72 66.2544C160.623 66.34 160.574 66.4256 160.477 66.5112C160.477 66.5112 160.477 66.554 160.429 66.554C160.331 66.6396 160.283 66.6824 160.186 66.768L160.137 66.8108C160.04 66.8964 159.991 66.9392 159.894 67.0248C159.894 67.0248 159.845 67.0248 159.845 67.0676C159.748 67.1104 159.651 67.196 159.602 67.2388C159.505 67.3244 159.408 67.3672 159.311 67.41C159.311 67.41 159.262 67.41 159.262 67.4528C159.165 67.4956 159.068 67.5384 158.971 67.5812C158.971 67.5812 158.922 67.5812 158.922 67.624C158.825 67.6668 158.728 67.7096 158.63 67.7524C158.533 67.7952 158.485 67.7952 158.436 67.7952C158.387 64.4996 155.763 60.4764 152.507 58.85C149.202 57.1808 146.529 58.5076 146.529 61.846C146.529 61.846 146.626 61.9744 146.821 62.2312C146.723 62.1456 146.675 62.06 146.578 61.9316C146.432 61.7604 146.335 61.632 146.237 61.4608C146.237 61.418 146.189 61.418 146.189 61.3752C146.092 61.2468 145.994 61.0756 145.897 60.9472C145.897 60.9044 145.849 60.9044 145.849 60.8616C145.751 60.7332 145.654 60.562 145.557 60.4336C145.46 60.2624 145.363 60.134 145.265 59.9628C145.265 59.92 145.217 59.92 145.217 59.8772C145.12 59.7488 145.022 59.5776 144.925 59.4064C144.925 59.3636 144.877 59.3636 144.877 59.3208C144.779 59.1924 144.731 59.0212 144.634 58.8928C144.536 58.6788 144.439 58.5504 144.391 58.3792C144.391 58.3364 144.342 58.3364 144.342 58.2936C144.245 58.1224 144.196 57.994 144.099 57.8228C144.002 57.6088 143.953 57.4804 143.856 57.3092C143.856 57.2664 143.856 57.2664 143.807 57.2236C143.759 57.0524 143.662 56.924 143.613 56.7528C143.613 56.71 143.613 56.71 143.564 56.6672C143.467 56.3248 143.321 56.0252 143.224 55.6828C143.224 55.64 143.224 55.64 143.176 55.5972C143.127 55.426 143.078 55.2976 143.03 55.1264C143.03 55.0836 143.03 55.0836 143.03 55.0408C142.981 54.9124 142.933 54.7412 142.933 54.6128C142.884 54.3988 142.835 54.2276 142.835 54.0992C142.835 54.0564 142.835 54.0136 142.835 54.0136C142.787 53.8424 142.787 53.714 142.738 53.5428C142.69 53.3288 142.69 53.2004 142.69 53.072C142.69 53.0292 142.69 53.0292 142.69 52.9864C142.69 52.8152 142.69 52.6868 142.641 52.5156C142.641 52.4728 142.641 52.43 142.641 52.43C142.641 52.2588 142.641 52.1304 142.641 51.9592C142.641 51.4456 142.69 50.9748 142.738 50.504C142.884 49.7336 143.078 49.0916 143.419 48.4924C143.467 48.364 143.564 48.2784 143.613 48.15C145.217 45.6248 148.57 45.0684 152.458 47.0372C155.957 48.792 158.971 52.216 160.72 55.854C160.817 56.1108 160.963 56.3248 161.06 56.5816C161.109 56.924 161.206 57.2664 161.352 57.6088ZM152.555 57.8656C154.548 58.8928 156.2 58.0796 156.2 56.0252C156.2 54.0136 154.597 51.5312 152.604 50.504C150.611 49.4768 148.959 50.29 148.959 52.3444C148.91 54.3988 150.514 56.8384 152.555 57.8656Z" fill="url(#paint7_linear_75_22)"/>
<path d="M152.555 50.5468C154.548 51.574 156.2 54.0564 156.152 56.068C156.152 58.0796 154.499 58.9356 152.507 57.9084C150.514 56.8812 148.862 54.3988 148.91 52.3872C148.91 50.3328 150.563 49.5196 152.555 50.5468Z" fill="white"/>
<path d="M179.188 98.6112C179.966 98.9964 180.549 99.938 180.549 100.666V105.716C180.549 106.486 179.917 106.786 179.188 106.401L126.846 79.7792C126.068 79.394 125.485 78.4524 125.485 77.7248V72.6744C125.485 71.904 126.117 71.6044 126.846 71.9896L179.188 98.6112Z" fill="#CFE3FF"/>
<path d="M158.728 106.743C160.526 107.642 161.935 109.868 161.935 111.665V112.821C161.935 114.618 160.477 115.346 158.679 114.447L141.766 105.844C139.968 104.946 138.51 102.72 138.559 100.922V99.7668C138.559 97.9692 140.017 97.2416 141.815 98.1404L158.728 106.743Z" fill="url(#paint8_linear_75_22)"/>
<path opacity="0.32" d="M122.229 186.822C132.858 186.822 141.475 182.319 141.475 176.764C141.475 171.209 132.858 166.706 122.229 166.706C111.6 166.706 102.983 171.209 102.983 176.764C102.983 182.319 111.6 186.822 122.229 186.822Z" fill="url(#paint9_linear_75_22)"/>
<path d="M141.766 108.327C141.766 108.327 142.932 107.642 143.224 107.3C143.516 106.957 143.904 105.031 143.516 104.946C143.127 104.86 142.835 106.23 142.835 106.23C142.835 106.23 142.738 102.677 142.252 102.164C141.766 101.65 140.259 104.175 140.162 104.603C140.065 105.031 139.676 106.786 139.676 106.786C139.676 106.786 140.211 108.327 141.766 108.327Z" fill="#EDBA8F"/>
<path d="M112.509 118.513C112.509 118.513 109.496 121.167 111.634 124.377C113.724 127.587 128.11 119.669 129.616 118.47C131.171 117.272 141.183 109.354 141.766 108.37C142.349 107.342 141.086 106.358 139.579 106.529C138.024 106.7 131.9 112.436 127.138 115.132C127.089 115.089 115.668 117.358 112.509 118.513Z" fill="#0061C1"/>
<path d="M114.259 174.581C114.259 174.581 114.016 176.165 114.356 176.85C114.696 177.449 116.008 177.877 116.932 177.278C117.855 176.678 119.41 175.266 119.41 175.266C119.41 175.266 122.035 174.025 122.278 173.383C122.521 172.741 121.597 172.142 120.868 172.313C120.139 172.441 118.001 173.64 116.98 173.64C115.96 173.554 114.599 173.768 114.259 174.581Z" fill="#393762"/>
<path d="M111.537 140.598C111.537 140.598 113.821 174.11 114.113 175.095C114.404 176.079 117.369 176.636 117.952 175.095C118.292 174.11 119.167 143.08 119.167 143.08L111.537 140.598Z" fill="#0061C1"/>
<path d="M121.889 176.593C121.743 176.678 121.694 176.85 121.694 176.978C121.694 177.449 121.694 178.476 121.986 178.861C122.375 179.375 123.59 179.931 124.853 179.332C125.923 178.818 129.227 176.678 129.859 176.165C130.248 175.865 130.442 175.523 130.54 175.223C130.588 174.966 130.491 174.71 130.199 174.624C129.713 174.453 128.936 174.196 128.207 174.41C127.138 174.752 125.728 175.78 124.27 175.694C123.152 175.694 122.278 176.293 121.889 176.593Z" fill="#393762"/>
<path d="M126.992 140.983C126.846 139.571 124.95 139.143 123.201 139.614C119.896 139.442 114.744 139.571 114.55 141.839C114.258 145.22 116.057 147.617 117.806 149.244C119.07 150.442 119.945 152.753 120.285 153.866C120.576 162.768 121.257 175.309 121.694 176.507C122.375 178.433 125.679 178.348 125.825 176.464C126.457 170.087 126.992 140.983 126.992 140.983Z" fill="#0061C1"/>
<path d="M126.992 142.01C126.603 143.722 121.014 144.578 117.758 144.15C114.502 143.68 111.002 142.267 111.1 138.972C111.1 138.972 111.731 131.011 111.488 129.598C111.245 128.186 110.614 125.661 110.614 123.05C110.614 120.439 112.46 118.513 112.46 118.513C112.46 118.513 114.307 116.673 119.993 117.7C119.993 117.7 124.659 118.599 126.797 121.638C126.797 121.638 128.304 124.976 127.769 131.952C127.332 138.929 126.992 142.01 126.992 142.01Z" fill="#113C7A"/>
<path d="M115.571 114.019C115.571 114.019 116.057 116.544 115.571 117.7C115.474 118.299 118.39 120.225 120.917 119.712C122.423 119.412 122.326 118.77 122.326 118.77C122.326 118.77 121.111 116.972 121.257 115.218C121.403 113.506 117.32 113.634 115.571 114.019Z" fill="#EDBA8F"/>
<path d="M125.194 108.883C125.194 112.179 122.132 114.875 118.39 114.875C114.647 114.875 111.586 112.179 111.586 108.883C111.586 105.588 114.647 102.891 118.39 102.891C122.18 102.934 125.194 105.588 125.194 108.883Z" fill="#EDBA8F"/>
<path d="M125.194 109.311C125.194 109.311 125.291 115.303 123.784 116.502C122.278 117.7 120.042 115.389 116.397 114.618C112.752 113.805 119.362 107.556 119.362 107.556L125.194 109.311Z" fill="#EDBA8F"/>
<path d="M140.308 118.171C140.308 118.171 139.676 115.817 139.871 115.646C140.065 115.474 140.94 116.459 140.94 116.459C140.94 116.459 141.377 114.062 141.718 113.805C142.058 113.548 143.516 114.832 143.71 115.517C143.905 116.202 142.835 118.984 142.398 119.07C142.009 119.112 140.503 119.284 140.308 118.171Z" fill="#EDBA8F"/>
<path d="M124.853 120.953C124.853 120.953 121.84 122.237 123.152 125.49C124.464 128.785 134.087 130.026 135.205 129.042C136.371 128.015 141.377 122.836 142.835 118.941C142.835 118.941 142.252 117.443 139.968 118.042C139.968 118.042 134.525 124.12 133.65 124.762C132.775 125.361 126.311 120.696 124.853 120.953Z" fill="#0061C1"/>
<path d="M112.606 104.346C112.606 104.346 114.744 102.078 118.389 101.864C122.034 101.65 121.84 102.763 125.193 102.592C126.603 102.506 127.089 103.576 126.943 105.16C126.846 106.315 125.242 107.899 122.861 107.899C120.528 107.899 120.576 107.899 120.576 107.899C120.576 107.899 122.472 108.626 122.715 110.082C122.958 111.537 122.618 111.494 122.618 111.494C122.618 111.494 121.937 110.938 120.965 111.323C120.09 111.665 120.042 113.934 120.868 114.319C121.694 114.747 121.694 114.747 121.694 114.747C121.694 114.747 120.09 117.315 119.264 117.443C118.389 117.572 115.571 115.688 115.571 115.688C115.571 115.688 111.634 113.463 111.148 110.21C110.662 106.957 112.606 104.346 112.606 104.346Z" fill="#393762"/>
<path opacity="0.32" d="M61.5762 170.13C72.2052 170.13 80.8218 165.627 80.8218 160.072C80.8218 154.517 72.2052 150.014 61.5762 150.014C50.9471 150.014 42.3306 154.517 42.3306 160.072C42.3306 165.627 50.9471 170.13 61.5762 170.13Z" fill="url(#paint10_linear_75_22)"/>
<path d="M51.8075 132.552C51.8075 132.552 53.1197 139.742 54.1889 143.765C54.1889 143.765 54.3833 150.399 54.6263 152.668C54.8207 154.936 55.5011 159.858 55.5011 159.858C55.5011 159.858 56.2787 160.414 57.1049 160.029C57.1049 160.029 58.1741 145.905 58.4171 143.637C58.6115 141.368 59.3891 131.096 59.3891 131.096C59.3891 131.096 56.9105 129.128 51.8075 132.552Z" fill="#FFB699"/>
<path d="M59.9237 129.684C59.9237 129.684 61.2359 136.875 62.3051 140.898C62.3051 140.898 62.4995 147.532 62.7425 149.8C62.9369 152.069 63.6173 156.991 63.6173 156.991C63.6173 156.991 64.3949 157.547 65.2211 157.162C65.2211 157.162 66.2903 143.038 66.5333 140.769C66.7277 138.501 66.8735 128.357 66.8735 128.357C66.8735 128.357 64.9781 126.26 59.9237 129.684Z" fill="#FFB699"/>
<path d="M53.4599 122.793C53.4599 122.793 50.3981 125.747 52.1477 135.676C52.2449 137.089 53.3141 140.769 53.3141 140.769C53.3141 140.769 57.2993 141.326 62.0621 139.742C66.8249 138.116 66.9221 137.26 66.9221 137.26C66.9221 137.26 67.1165 124.762 66.0473 121.552C64.9781 118.342 53.4599 122.793 53.4599 122.793Z" fill="#113C7A"/>
<path d="M65.2211 156.52C65.2211 156.52 65.1239 157.247 65.9987 157.804C66.8735 158.36 68.4773 159.43 68.7689 160.029C68.7689 160.5 66.7277 159.987 65.8043 159.559C64.8809 159.131 64.0061 158.146 64.0061 158.146L64.0547 158.574C64.0547 158.574 63.7145 158.574 63.4715 158.317C63.1799 158.061 63.5201 156.605 63.5201 156.605L65.2211 156.52Z" fill="#5167B0"/>
<path d="M57.1535 159.815C57.1535 159.815 57.0563 160.543 57.9311 161.099C58.8059 161.656 60.4097 162.726 60.7013 163.325C60.7013 163.796 58.6601 163.282 57.7367 162.854C56.8133 162.426 55.9385 161.442 55.9385 161.442L55.9871 161.87C55.9871 161.87 55.6469 161.87 55.4039 161.613C55.1123 161.356 55.4525 159.901 55.4525 159.901L57.1535 159.815Z" fill="#5167B0"/>
<path d="M64.9295 104.004C64.9295 104.004 67.8455 104.304 69.6923 109.696C70.7615 113.249 72.3653 113.548 74.1635 113.891C75.9617 114.19 83.5919 113.891 84.2237 113.891C84.8069 113.891 85.5359 115.046 84.7097 115.902C83.8835 116.758 73.3373 117.614 71.2475 117.614C69.2063 117.614 64.4435 114.19 62.5481 111.408C60.6041 108.626 62.4023 103.79 64.9295 104.004Z" fill="#A969E0"/>
<path d="M56.4731 102.891C56.4731 102.891 50.4953 106.658 49.9121 107.899C49.3289 109.14 48.5027 113.035 50.4467 114.961C53.8001 118.257 51.8075 123.949 52.2449 125.661C52.6823 127.33 57.2507 127.544 60.4097 126.988C63.5687 126.431 66.5333 125.019 66.3875 121.766C66.2903 118.513 67.2623 114.019 67.4567 112.564C67.6511 111.109 67.4567 107.428 66.6791 104.946C66.5333 104.432 64.5407 103.876 64.5407 103.876C64.5407 103.876 62.4023 102.635 56.4731 102.891Z" fill="#A969E0"/>
<path d="M61.6733 102.164C61.6733 102.164 61.6733 102.249 61.6733 102.335C61.7219 102.72 61.9649 103.704 62.0135 104.132C62.0621 104.518 61.5275 105.202 60.3125 105.202C59.0975 105.16 57.0563 104.732 56.3759 103.448C56.4245 103.234 56.3273 100.88 56.1815 99.6813L61.6733 102.164Z" fill="#EFA389"/>
<path d="M65.0267 95.0589C64.3949 92.0201 61.6247 90.2653 58.5143 90.9073C58.5143 90.9073 55.1609 91.2069 53.6543 93.8177C52.1477 96.4285 54.3347 98.6113 55.7441 100.024C56.3273 100.58 56.7647 101.051 57.0563 101.308C57.1535 101.393 57.2507 101.522 57.3479 101.607L57.3965 101.65C58.3685 102.506 59.4863 102.977 60.2639 103.191C61.6247 103.533 63.2285 103.362 64.1033 102.549C65.0267 101.693 65.7071 98.0977 65.0267 95.0589Z" fill="#FFB699"/>
<path d="M51.759 115.731L59.292 117.829L66.2904 116.117C66.1932 116.373 64.3464 121.381 60.3126 122.28C57.4452 122.922 53.9946 120.696 52.2936 119.369C52.1964 118.428 51.9534 117.529 51.5646 116.673L51.759 115.731Z" fill="#945DCE"/>
<path d="M52.0991 109.482C52.0991 109.482 48.1139 108.626 49.8149 113.42C51.5159 118.214 57.2021 121.723 59.2433 121.509C61.2845 121.295 69.6437 113.506 69.6437 112.564C69.6437 111.622 68.6717 110.98 67.6997 111.194C66.7277 111.408 60.3125 117.486 59.7293 117.272C59.1461 117.058 55.4039 111.537 52.0991 109.482Z" fill="#BA86F2"/>
<path d="M68.5259 112.949C68.5259 112.949 67.4081 112.65 67.7483 111.58C68.0885 110.51 70.2755 109.696 70.6157 109.654C70.9559 109.611 74.2121 110.167 74.3579 110.552C74.5037 110.895 73.7747 111.066 72.9485 110.895C72.1709 110.724 70.9559 110.681 70.9559 110.681C70.9559 110.681 71.8307 111.494 71.7335 111.836C71.6849 112.179 71.1989 112.906 70.5185 113.206C69.8381 113.506 69.0605 112.864 69.0605 112.864L68.5259 112.949Z" fill="#FF9D6F"/>
<path d="M83.2031 114.019C83.2031 114.019 85.8275 112.05 85.9733 112.393C86.1191 112.735 85.0499 113.72 85.0499 113.72C85.0499 113.72 88.5977 112.521 88.6463 112.949C88.6949 113.334 86.7995 114.618 86.2649 114.918C85.7789 115.218 83.9807 115.646 83.9807 115.646C83.9807 115.646 83.0087 114.49 83.2031 114.019Z" fill="#FF9D6F"/>
<g opacity="0.8">
<path d="M71.199 96.3429C70.3242 96.7709 69.6438 97.8837 69.6438 98.7397L69.741 131.439C69.741 133.536 71.442 134.392 73.4832 133.322L95.5962 122.066C96.471 121.638 97.1514 120.525 97.1514 119.669L97.0542 86.9697C97.0542 84.8725 95.3532 84.0165 93.312 85.0865L71.199 96.3429Z" fill="white"/>
</g>
<path d="M74.601 108.199C74.358 108.327 74.115 108.669 74.115 108.926V110.681C74.115 110.938 74.3094 111.066 74.601 110.938L92.6316 101.779C92.8746 101.65 93.1176 101.308 93.1176 101.051V99.2961C93.1176 99.0393 92.9232 98.9109 92.6316 99.0821L74.601 108.199Z" fill="#1DBFFF"/>
<path d="M74.601 111.965C74.358 112.093 74.115 112.436 74.115 112.692V114.447C74.115 114.704 74.3094 114.832 74.601 114.661L92.6316 105.502C92.8746 105.374 93.1176 105.031 93.1176 104.774V103.02C93.1176 102.763 92.9232 102.634 92.6316 102.763L74.601 111.965Z" fill="#1DBFFF"/>
<path d="M81.648 114.79C81.0162 115.089 80.5302 115.86 80.5302 116.502V116.887C80.5302 117.529 81.0162 117.743 81.648 117.443L87.48 114.49C88.1118 114.191 88.5978 113.42 88.5978 112.778V112.393C88.5978 111.751 88.1118 111.537 87.48 111.837L81.648 114.79Z" fill="#1AE5FF"/>
<path d="M55.7927 99.9808C61.1387 98.6968 64.2005 92.1912 64.2005 92.1912L62.7425 90.8216C62.7425 90.8216 54.2375 88.596 52.0991 93.946C49.8635 99.296 55.7927 99.9808 55.7927 99.9808Z" fill="#393762"/>
<path d="M121.549 106.7C121.549 106.7 124.27 108.669 127.818 106.7C127.818 106.7 126.263 109.525 121.306 108.37L118.244 107.214L121.549 106.7Z" fill="#393762"/>
<path d="M131.123 76.9973C130.783 76.9545 130.394 77.2969 130.297 77.7677C130.151 78.2385 130.345 78.6665 130.685 78.7521C131.026 78.7949 131.414 78.4525 131.512 77.9817C131.609 77.4681 131.463 77.0401 131.123 76.9973Z" fill="#B1CAE8"/>
<path d="M134.768 78.752C134.428 78.7092 134.039 79.0516 133.942 79.5224C133.796 79.9932 133.99 80.4212 134.33 80.5068C134.671 80.5496 135.059 80.2072 135.157 79.7364C135.254 79.2228 135.108 78.7948 134.768 78.752Z" fill="#B1CAE8"/>
<path d="M138.413 80.5069C138.073 80.4641 137.684 80.8065 137.587 81.2773C137.441 81.7481 137.635 82.1761 137.975 82.2617C138.316 82.3045 138.704 81.9621 138.802 81.4913C138.899 81.0205 138.753 80.5497 138.413 80.5069Z" fill="#B1CAE8"/>
<path d="M142.106 82.2188C141.766 82.176 141.377 82.5184 141.28 82.9892C141.134 83.46 141.329 83.888 141.669 83.9736C142.009 84.0164 142.398 83.674 142.495 83.2032C142.592 82.7324 142.447 82.3044 142.106 82.2188Z" fill="#B1CAE8"/>
<path d="M145.751 83.9737C145.411 83.9309 145.022 84.2733 144.925 84.7441C144.828 85.2149 144.974 85.6429 145.314 85.7285C145.654 85.7713 146.043 85.4289 146.14 84.9581C146.237 84.4873 146.092 84.0165 145.751 83.9737Z" fill="#B1CAE8"/>
<path d="M149.396 85.7285C149.056 85.6857 148.667 86.0281 148.57 86.4989C148.473 86.9697 148.619 87.3977 148.959 87.4833C149.299 87.5261 149.688 87.1837 149.785 86.7129C149.882 86.2421 149.736 85.7713 149.396 85.7285Z" fill="#B1CAE8"/>
<defs>
<linearGradient id="paint0_linear_75_22" x1="0.448715" y1="117.855" x2="242.63" y2="117.855" gradientUnits="userSpaceOnUse">
<stop stop-color="#00FFFF"/>
<stop offset="1" stop-color="#604BC9"/>
</linearGradient>
<linearGradient id="paint1_linear_75_22" x1="18.669" y1="54.0578" x2="174.94" y2="134.764" gradientUnits="userSpaceOnUse">
<stop stop-color="#00FFFF"/>
<stop offset="1" stop-color="#604BC9"/>
</linearGradient>
<linearGradient id="paint2_linear_75_22" x1="35.3672" y1="34.6451" x2="95.0225" y2="45.5744" gradientUnits="userSpaceOnUse">
<stop stop-color="#00FFFF"/>
<stop offset="0.2316" stop-color="#1DC9EF"/>
<stop offset="0.4894" stop-color="#3A93DF"/>
<stop offset="0.7129" stop-color="#4E6CD3"/>
<stop offset="0.8904" stop-color="#5B54CC"/>
<stop offset="1" stop-color="#604BC9"/>
</linearGradient>
<linearGradient id="paint3_linear_75_22" x1="186.277" y1="212.065" x2="178.485" y2="199.177" gradientUnits="userSpaceOnUse">
<stop stop-color="#00FFFF"/>
<stop offset="1" stop-color="#604BC9"/>
</linearGradient>
<linearGradient id="paint4_linear_75_22" x1="52.3873" y1="70.5382" x2="45.3763" y2="52.3887" gradientUnits="userSpaceOnUse">
<stop stop-color="#00FFFF"/>
<stop offset="1" stop-color="#604BC9"/>
</linearGradient>
<linearGradient id="paint5_linear_75_22" x1="199.081" y1="186.272" x2="186.228" y2="170.702" gradientUnits="userSpaceOnUse">
<stop stop-color="#00FFFF"/>
<stop offset="1" stop-color="#604BC9"/>
</linearGradient>
<linearGradient id="paint6_linear_75_22" x1="152.823" y1="157.965" x2="152.823" y2="122.884" gradientUnits="userSpaceOnUse">
<stop stop-color="#00FFFF"/>
<stop offset="1" stop-color="#604BC9"/>
</linearGradient>
<linearGradient id="paint7_linear_75_22" x1="143.852" y1="41.6417" x2="157.574" y2="73.4989" gradientUnits="userSpaceOnUse">
<stop stop-color="#00FFFF"/>
<stop offset="1" stop-color="#604BC9"/>
</linearGradient>
<linearGradient id="paint8_linear_75_22" x1="150.265" y1="90.3859" x2="150.265" y2="122.215" gradientUnits="userSpaceOnUse">
<stop stop-color="#5155D4"/>
<stop offset="1" stop-color="#45F7FF"/>
</linearGradient>
<linearGradient id="paint9_linear_75_22" x1="102.992" y1="176.753" x2="141.47" y2="176.753" gradientUnits="userSpaceOnUse">
<stop stop-color="#5155D4"/>
<stop offset="1" stop-color="#45F7FF"/>
</linearGradient>
<linearGradient id="paint10_linear_75_22" x1="42.3349" y1="160.071" x2="80.8136" y2="160.071" gradientUnits="userSpaceOnUse">
<stop stop-color="#5155D4"/>
<stop offset="1" stop-color="#45F7FF"/>
</linearGradient>
</defs>
</svg>
